inDegrees=no
num_controls=7
num_derivatives=13
num_iterations=56
num_multipliers=7
num_parameters=0
num_slacks=7
num_states=26
objective=0.449986
objective_accelerations=0.044718
objective_balance=0.002435
objective_effort=0.021508
objective_height=0.375742
objective_ligament=0.005583
solver_duration=756.016910
status=Solve_Succeeded
success=true
DataType=double
version=3
OpenSimVersion=4.5
endheader
time	/jointset/ground_pelvis/pelvis_tilt/value	/jointset/ground_pelvis/pelvis_tx/value	/jointset/ground_pelvis/pelvis_ty/value	/jointset/hip_l/hip_flexion_l/value	/jointset/hip_l/hip_adduction_l/value	/jointset/hip_l/hip_rotation_l/value	/jointset/back/lumbar_extension/value	/jointset/patellofemoral_l/patellar_flexion_l/value	/jointset/knee_l/knee_flexion_l/value	/jointset/knee_l/knee_adduction_l/value	/jointset/knee_l/knee_rotation_l/value	/jointset/ankle_l/ankle_angle_l/value	/jointset/subtalar_l/subtalar_angle_l/value	/jointset/ground_pelvis/pelvis_tilt/speed	/jointset/ground_pelvis/pelvis_tx/speed	/jointset/ground_pelvis/pelvis_ty/speed	/jointset/hip_l/hip_flexion_l/speed	/jointset/hip_l/hip_adduction_l/speed	/jointset/hip_l/hip_rotation_l/speed	/jointset/back/lumbar_extension/speed	/jointset/patellofemoral_l/patellar_flexion_l/speed	/jointset/knee_l/knee_flexion_l/speed	/jointset/knee_l/knee_adduction_l/speed	/jointset/knee_l/knee_rotation_l/speed	/jointset/ankle_l/ankle_angle_l/speed	/jointset/subtalar_l/subtalar_angle_l/speed	/forceset/tau_hip_flexion_l	/forceset/tau_hip_adduction_l	/forceset/tau_hip_rotation_l	/forceset/tau_knee_flexion_l	/forceset/tau_ankle_angle_l	/forceset/tau_subtalar_angle_l	/forceset/tau_lumbar_extension	lambda_cid13_p0	lambda_cid13_p1	lambda_cid13_p2	lambda_cid13_p3	lambda_cid13_p4	lambda_cid13_p5	lambda_cid14_p0	/jointset/ground_pelvis/pelvis_tilt/accel	/jointset/ground_pelvis/pelvis_tx/accel	/jointset/ground_pelvis/pelvis_ty/accel	/jointset/hip_l/hip_flexion_l/accel	/jointset/hip_l/hip_adduction_l/accel	/jointset/hip_l/hip_rotation_l/accel	/jointset/back/lumbar_extension/accel	/jointset/patellofemoral_l/patellar_flexion_l/accel	/jointset/knee_l/knee_flexion_l/accel	/jointset/knee_l/knee_adduction_l/accel	/jointset/knee_l/knee_rotation_l/accel	/jointset/ankle_l/ankle_angle_l/accel	/jointset/subtalar_l/subtalar_angle_l/accel	gamma_cid13_p0	gamma_cid13_p1	gamma_cid13_p2	gamma_cid13_p3	gamma_cid13_p4	gamma_cid13_p5	gamma_cid14_p0
1	-0.2394729728931271	0.0214880269336017	0.6396648235847197	1.303497550029877	-0.4980916421631261	0.01488025712682747	-0.260822545168069	1.383719842875063	1.383719842876651	-0.1178382637881333	-0.1739991332124303	0.436022181125966	0.09319133469124866	-0.0148860755602186	0.009350903643977771	-0.001108386280568664	0.003416558776520044	-0.002578790725793201	0.004994930377760105	-0.003171696516928247	0.005996701720879878	0.005996701720879601	-0.003776126206487036	0.001940738589714812	0.01777989764649848	0.01016674599500309	-0.1501400005381845	0.0543314886662053	-0.00235297560948378	-0.414434808695892	0.00423002946534965	0.006088219435138229	0.1646961981810475	-38.07360966234804	6.443420063177663	-4.128676723486163	8.870281834853515	-619.8160665939138	-53.80956040627878	-1.608685981312682	0.648300859996364	0.04267082935303685	1.55835448297598	-4.66953408071157	0.2446281713327912	-2.291058254391431	-0.02776302871947161	-5.023321739896307	-5.023321739896377	-0.3106024896500332	0.1211951708003205	-1.63090491971175	-0.8804296600467695	4.609587883209573e-09	2.092351066442215e-08	-1.821930758363338e-08	5.635806012122796e-09	-3.016418503342248e-10	2.551995245576583e-08	3.729706335863021e-09
1.01	-0.2395900886489377	0.02158368752435808	0.6397315501013854	1.303299194006731	-0.4981045820298511	0.01481373284115685	-0.2608547348839093	1.383528897266244	1.38352889726704	-0.1178884847159932	-0.1739728889221746	0.4361187032349487	0.0932502675015424	-0.00854515908972248	0.009785257976743166	0.01445312584548765	-0.04308265856685802	2.121613198655517e-06	-0.01828234034746406	-0.003240895020928953	-0.04418977805684818	-0.04418977805684736	-0.006267878849031626	0.003335148239485343	0.001527825323658216	0.001641065629315286	-0.1502915730405863	0.05444735847408878	-0.00237888784672417	-0.4141571775510725	0.003973899879923868	0.006123959916946493	0.1648360214752349	-38.14885142809985	6.436158437759187	-4.121906130492175	8.816528213187654	-619.8031122197842	-53.79185494947076	-1.612617254136599	0.6257744635229433	0.04442649879250907	1.554962885544175	-4.639350177335922	0.266513886096804	-2.34344721081942	0.007304483653908922	-5.016903398067703	-5.016903398067575	-0.2184344451374083	0.152627506021537	-1.621861012464306	-0.835458426033199	2.805674925755683e-09	2.828253367663893e-08	3.341756810402984e-08	1.115965864222536e-08	-1.053006061061041e-08	5.385689913693251e-08	-4.339989610776997e-09
1.02	-0.2396440377554609	0.02168381341115259	0.6399538744009382	1.302635998886914	-0.4980913745490153	0.0145149587024397	-0.2608868560358095	1.382835968399356	1.382835968399402	-0.1179636177289173	-0.173931887806651	0.4360528040959267	0.09322457926793712	-0.00225274570136725	0.01024396285160558	0.03001117029668929	-0.0895512605576366	0.00265067878874277	-0.04145504024193757	-0.003157983729145191	-0.09439994988883671	-0.09439994988883417	-0.008758543234788783	0.004892103647525617	-0.01470435195494169	-0.006757462784485995	-0.1504431455428942	0.05456322828211905	-0.002404800084044682	-0.4138795464062259	0.003717770294548333	0.006159700399045809	0.1649758447694766	-38.23174897868948	6.428457330407511	-4.11303258579476	8.795454267339371	-619.9117598190337	-53.76063109682295	-1.626790972442918	0.6386002435681341	0.04754093777245716	1.557660948005064	-4.663411010191668	0.2581571386433639	-2.270144088241166	0.002658930437556469	-5.028060150748452	-5.028060150748398	-0.310384838292493	0.1537043224545898	-1.62692591086363	-0.8549992696692228	-7.872110165118102e-10	2.721076799485944e-08	8.304831452167936e-08	1.467027587366436e-08	-2.108350380472107e-08	7.314555866801483e-08	-1.269014623813021e-08
1.03	-0.2396353482756829	0.02178862278296265	0.6403317147349412	1.30150844035382	-0.4980513069289692	0.01398492177114076	-0.2609173208057146	1.381640802221462	1.381640802221353	-0.1180635483344566	-0.1738745604013044	0.4358245528206658	0.09311552778260451	0.003977899284896397	0.01071945258230742	0.04555163828928539	-0.1359382976835365	0.005377006684689822	-0.06454276865631607	-0.002902387659291543	-0.1446392229999856	-0.144639222999984	-0.01121654781191019	0.006592390569261412	-0.03095590489334306	-0.0150346573775386	-0.1505870810771242	0.05475305685099882	-0.002483837215435439	-0.413165291924564	0.003207018301442078	0.006244818495086438	0.165100508587578	-38.37880637706714	6.397838493743991	-4.085990688512779	8.836403242957532	-619.7890041728701	-53.73369951941991	-1.651357299360867	0.6133846441336245	0.04778780472701812	1.551444600687021	-4.623029138360729	0.2819758031991805	-2.32666511164353	0.0418973345626916	-5.022747228373795	-5.022747228374065	-0.2118590049025391	0.1810732608463207	-1.625767297673944	-0.8113732316557658	-4.398351785154962e-09	2.605297385701872e-08	1.32658590232492e-07	1.816034988674964e-08	-3.16402635746872e-08	9.234188873838196e-08	-2.104316470916417e-08
1.04	-0.2395647347424534	0.02189823401488095	0.6408648007240322	1.29991767563455	-0.4979835549923505	0.01322429197703049	-0.260944252137065	1.37994306604502	1.3799430660448	-0.1181877291331824	-0.1737996536500873	0.4354334865535356	0.09292424561583332	0.01013206499027606	0.01120433487325405	0.06106030131407412	-0.1821924977923021	0.008187542105762384	-0.08757361281497855	-0.002451296017289262	-0.1949139495941568	-0.1949139495941567	-0.01360858188823802	0.008407972843548652	-0.0472673503255612	-0.02320359907187025	-0.1507310166112812	0.05494288542002826	-0.002562874346912166	-0.4124510374428758	0.002696266308389672	0.006329936591426124	0.1652251724057131	-38.53358964973906	6.366928592343466	-4.057024991503885	8.910017978802658	-619.7883789698311	-53.69322232266266	-1.686547287146713	0.6233043873913142	0.04941944982141331	1.551299954443609	-4.636843606764796	0.2749986436686017	-2.258767237097826	0.04175804486740711	-5.035150847352961	-5.035150847353036	-0.2971907381337033	0.1767633929652222	-1.638904409626961	-0.8333486899247843	-7.772063215760005e-09	2.820393296863673e-08	1.855354523929991e-07	2.309853930335199e-08	-4.261183300240633e-08	1.159225026348068e-07	-2.970227908209747e-08
1.05	-0.2394329554831388	0.02201275639917505	0.6415527679111404	1.297865106731078	-0.497887243786443	0.01223388189198486	-0.2609656594268229	1.377742431762921	1.377742431763054	-0.1183356582376402	-0.1737059643552137	0.4348789748817076	0.09265186736463546	0.01621081146041044	0.01170320931018675	0.07652320332012509	-0.2282911487035237	0.01109169726062133	-0.1104771299088747	-0.001792890265500442	-0.2452165893796416	-0.245216589379641	-0.01598027446522996	0.01035276199634674	-0.06364842584523278	-0.03124966608905447	-0.1507861399072243	0.0551388870159598	-0.002690151904960009	-0.4114460512349056	0.002198162985225122	0.006451690098327773	0.1652843140587533	-38.66474786242516	6.303732072877426	-4.008931501159054	8.938731115009768	-619.5428670378278	-53.65781180046552	-1.732725120561986	0.598212261805388	0.05058720608168778	1.542284575350561	-4.591858073911216	0.3006391251433063	-2.301479338541297	0.08347259104918224	-5.028365165283534	-5.028365165283475	-0.2076240379238616	0.2068213974150961	-1.639721201581223	-0.7869116567358077	-1.113835497955136e-08	3.04582906193003e-08	2.385143953800592e-07	2.808198232631424e-08	-5.359636523193025e-08	1.39640125400796e-07	-3.837095895196512e-08
1.06	-0.2392407782621336	0.02213236068092865	0.6423950639686438	1.295352454870365	-0.4977613879942495	0.01101536955744356	-0.2609793645089304	1.375038662158721	1.375038662159251	-0.1185073973718738	-0.173592130224715	0.4341602500389883	0.09229969325343998	0.02221165732977282	0.01222071436515457	0.09192607539294111	-0.2742090892391626	0.01409645936541257	-0.1331940627229952	-0.0009108544851189572	-0.2955410140106127	-0.2955410140106109	-0.01837058785988426	0.01243693998828013	-0.0801099845026586	-0.0391627710710459	-0.1508412632031157	0.05533488861199782	-0.002817429463208534	-0.4104410650269137	0.001700059662101335	0.006573443605447237	0.1653434557118162	-38.80374530752417	6.240373861648444	-3.959059919397018	9.000320447988283	-619.4200084928503	-53.60920958229465	-1.790337214742503	0.6077242672369022	0.05314557342844505	1.539293967796625	-4.60070153164826	0.2951200336551465	-2.22145038114262	0.08648405058602755	-5.039507816450227	-5.039507816450185	-0.300914901666111	0.2046411607925011	-1.655001037177775	-0.8067562828860535	-1.493905830914386e-08	3.013911328868723e-08	2.860455548441037e-07	3.230939513857977e-08	-6.369312993165581e-08	1.582987152607721e-07	-4.64137850103685e-08
1.07	-0.2389890148619129	0.02225726762013529	0.6433910356558781	1.29238162743046	-0.4976049424527494	0.009570620035314701	-0.2609830110584586	1.371831592466455	1.371831592466224	-0.1187030224142337	-0.1734567549134592	0.4332765240159673	0.09186915680254105	0.02812352170327566	0.01276717364428247	0.1072529549435877	-0.319915245706251	0.01721327775833218	-0.1557281357866301	0.0002323942549418145	-0.3458716927556639	-0.34587169275566	-0.02074365917908162	0.0146606079145829	-0.09664721530172157	-0.04691234128898425	-0.1507998163899582	0.05552257929659914	-0.002994912430528016	-0.4091773915229449	0.001293421585159588	0.006727760549222964	0.1653398798230966	-38.89308625284018	6.142174746032696	-3.889921955821539	8.976261081203427	-619.0509318526005	-53.56183932155862	-1.859957187761573	0.5802906289900395	0.05637848894105924	1.527073991498147	-4.549403072885831	0.3230089448153688	-2.265267707442789	0.1358727373337291	-5.029652152396792	-5.029652152396572	-0.2039040518593254	0.2346759303184225	-1.654878521903076	-0.7542756403938293	-1.876286863691727e-08	2.96830457994956e-08	3.332869385888388e-07	3.649659357793589e-08	-7.374267295426442e-08	1.766882076257476e-07	-5.44233209724174e-08
1.08	-0.2386786581966478	0.02238783562889018	0.6445398139471806	1.28895497235215	-0.4974167194867899	0.007901353394887276	-0.2609736996302844	1.368121255136953	1.368121255135995	-0.1189220583306794	-0.1732984536585984	0.4322270668008267	0.09136208099963181	0.03393031034009929	0.01335292827480637	0.1224873962063826	-0.3653746169192059	0.02045194425944494	-0.1780974863890157	0.00168074105971639	-0.3961945414552799	-0.396194541455274	-0.02305276269077861	0.01702212871166764	-0.1132562229260824	-0.05447064147275546	-0.1507583695767444	0.05571026998125703	-0.003172395398073046	-0.4079137180189588	0.0008867835082391495	0.006882077493116845	0.1653363039344148	-38.99040698103528	6.043950016365732	-3.819154916057332	8.985218874592261	-618.8048596674475	-53.50193218668277	-1.942233223800767	0.586709119901055	0.06100464370765869	1.520806310226295	-4.551344480821586	0.3194896552938485	-2.188505888892712	0.1475036635287818	-5.037941807363202	-5.037941807363194	-0.2881213401659636	0.232211734949085	-1.669356402237297	-0.7685022760524658	-2.27957907326195e-08	2.896570704123797e-08	3.80692852076384e-07	4.069191629314129e-08	-8.365163541315422e-08	1.936489187481922e-07	-6.232400446536122e-08
1.09	-0.2383107078562135	0.02252450434934071	0.6458404216642121	1.285074964635222	-0.4971954823985558	0.006009398735711329	-0.2609483113464299	1.363907813961391	1.363907813960539	-0.1191639456796808	-0.1731158298836914	0.4310112166197793	0.09078047038658954	0.03964602652830578	0.01399199570634496	0.1376134594531025	-0.410584026886875	0.02381776501430929	-0.200253209584353	0.003456337459393431	-0.4464843195636983	-0.446484319563691	-0.02531686537338821	0.01952659327181029	-0.1299203321175622	-0.06181033129484178	-0.1506447276422961	0.05588720541248957	-0.003396499796441495	-0.4063524743796235	0.0005507003677894085	0.007074929859678678	0.1652884303171804	-39.0430729774826	5.908018881715405	-3.727353779404274	8.900933527657209	-618.2957361756243	-53.4441796793572	-2.037934044449865	0.5619408723443823	0.06704383045205885	1.505384279919912	-4.499308623423982	0.348410371516872	-2.223119380806132	0.2015008902747516	-5.023075511609171	-5.023075511609008	-0.1943980635374555	0.2632524380858396	-1.66591052704315	-0.7105859352822864	-2.684462350631632e-08	2.822848894729054e-08	4.281112841313169e-07	4.488785715977001e-08	-9.354990152480454e-08	2.105009182543573e-07	-7.021640570522097e-08
